<svg xmlns="http://www.w3.org/2000/svg" viewBox="0 0 160 40" width="1600" height="400"
     role="presentation" preserveAspectRatio="xMidYMid slice">
  <title>Caddies</title>
  <!-- The shelf you keep meaning to label properly. -->
  <style>
    .warm { animation: glow 8s ease-in-out infinite alternate }
    @keyframes glow { from { opacity: .45 } to { opacity: .8 } }
    .curl { animation: rise 8s ease-out infinite }
    .c2 { animation-delay: -2.6s } .c3 { animation-delay: -5.2s }
    @keyframes rise { 0% { transform: translate(0,0) scale(.5); opacity: 0 }
                      22% { opacity: .5 }
                      100% { transform: translate(-3px,-10px) scale(1.5); opacity: 0 } }
    @media (prefers-reduced-motion: reduce) { .warm, .curl { animation: none } }
  </style>
  <defs>
    <linearGradient id="pantry" x1="0" y1="0" x2="0" y2="1">
      <stop offset="0%" stop-color="#33231A"/><stop offset="100%" stop-color="#4E3826"/>
    </linearGradient>
    <linearGradient id="board" x1="0" y1="0" x2="0" y2="1">
      <stop offset="0%" stop-color="#8A6034"/><stop offset="100%" stop-color="#4A3018"/>
    </linearGradient>
    <linearGradient id="glassjar" x1="0" y1="0" x2="1" y2="0">
      <stop offset="0%" stop-color="#D8E2DC" stop-opacity=".5"/>
      <stop offset="42%" stop-color="#F2F6F2" stop-opacity=".28"/>
      <stop offset="100%" stop-color="#A8B4AE" stop-opacity=".5"/>
    </linearGradient>
    <radialGradient id="pantrylight" cx=".5" cy=".2" r=".75">
      <stop offset="0%" stop-color="#FFD79A" stop-opacity=".4"/>
      <stop offset="100%" stop-color="#FFD79A" stop-opacity="0"/>
    </radialGradient>
  </defs>
  <rect width="160" height="40" fill="url(#pantry)"/>
  <ellipse class="warm" cx="80" cy="10" rx="70" ry="24" fill="url(#pantrylight)"/>
  <g stroke="#2A1C12" stroke-width=".4" opacity=".5" fill="none">
    <path d="M0 6 L160 6"/><path d="M0 13 L160 13"/>
  </g>

  <!-- Tins, in no order anybody would defend. -->
  <g>
    <path d="M14 22 L23 22 L23 9 L14 9 Z" fill="#2E5E6B"/>
    <path d="M14 9 L17.1 9 L17.1 22 L14 22 Z"
          fill="#FFFFFF" opacity=".16"/>
    <path d="M21.4 9 L23 9 L23 22 L21.4 22 Z"
          fill="#000000" opacity=".18"/>
    <ellipse cx="18.5" cy="9" rx="4.5" ry="1.53" fill="#C9A85E"/>
    <path d="M13.5 7.6 L23.5 7.6 L23.5 9.4 L13.5 9.4 Z"
          fill="#C9A85E"/>
    <ellipse cx="18.5" cy="7.6" rx="5.0" ry="1.62" fill="#C9A85E"/>
    <ellipse cx="18.5" cy="7.6" rx="2.2" ry="0.81" fill="#FFFFFF" opacity=".22"/>
    <path d="M14.9 13.9 L22.1 13.9 L22.1 18.6 L14.9 18.6 Z"
          fill="#EFE7D0"/>
    <g stroke="#8A7A56" stroke-width=".26" opacity=".8">
      <path d="M15.8 15.2 L21.2 15.2"/>
      <path d="M15.8 16.5 L20.2 16.5"/>
    </g>
  </g><g>
    <path d="M26 22 L34 22 L34 11 L26 11 Z" fill="#8E3A34"/>
    <path d="M26 11 L28.7 11 L28.7 22 L26 22 Z"
          fill="#FFFFFF" opacity=".16"/>
    <path d="M32.6 11 L34 11 L34 22 L32.6 22 Z"
          fill="#000000" opacity=".18"/>
    <ellipse cx="30.0" cy="11" rx="4.0" ry="1.36" fill="#C9A85E"/>
    <path d="M25.5 9.6 L34.5 9.6 L34.5 11.4 L25.5 11.4 Z"
          fill="#C9A85E"/>
    <ellipse cx="30.0" cy="9.6" rx="4.5" ry="1.44" fill="#C9A85E"/>
    <ellipse cx="30.0" cy="9.6" rx="2.0" ry="0.72" fill="#FFFFFF" opacity=".22"/>
    <path d="M26.9 15.2 L33.1 15.2 L33.1 19.1 L26.9 19.1 Z"
          fill="#EFE7D0"/>
    <g stroke="#8A7A56" stroke-width=".26" opacity=".8">
      <path d="M27.8 16.3 L32.2 16.3"/>
      <path d="M27.8 17.4 L31.2 17.4"/>
    </g>
  </g><g>
    <path d="M37 22 L46.5 22 L46.5 8 L37 8 Z" fill="#3E6B3A"/>
    <path d="M37 8 L40.2 8 L40.2 22 L37 22 Z"
          fill="#FFFFFF" opacity=".16"/>
    <path d="M44.8 8 L46.5 8 L46.5 22 L44.8 22 Z"
          fill="#000000" opacity=".18"/>
    <ellipse cx="41.8" cy="8" rx="4.8" ry="1.62" fill="#C9A85E"/>
    <path d="M36.5 6.6 L47.0 6.6 L47.0 8.4 L36.5 8.4 Z"
          fill="#C9A85E"/>
    <ellipse cx="41.8" cy="6.6" rx="5.2" ry="1.71" fill="#C9A85E"/>
    <ellipse cx="41.8" cy="6.6" rx="2.4" ry="0.85" fill="#FFFFFF" opacity=".22"/>
    <path d="M37.9 13.3 L45.6 13.3 L45.6 18.4 L37.9 18.4 Z"
          fill="#EFE7D0"/>
    <g stroke="#8A7A56" stroke-width=".26" opacity=".8">
      <path d="M38.8 14.7 L44.7 14.7"/>
      <path d="M38.8 16.1 L43.7 16.1"/>
    </g>
  </g><g>
    <path d="M49.5 22 L57.0 22 L57.0 11.5 L49.5 11.5 Z" fill="#6B4A8E"/>
    <path d="M49.5 11.5 L52.0 11.5 L52.0 22 L49.5 22 Z"
          fill="#FFFFFF" opacity=".16"/>
    <path d="M55.6 11.5 L57.0 11.5 L57.0 22 L55.6 22 Z"
          fill="#000000" opacity=".18"/>
    <ellipse cx="53.2" cy="11.5" rx="3.8" ry="1.28" fill="#C9A85E"/>
    <path d="M49.0 10.1 L57.5 10.1 L57.5 11.9 L49.0 11.9 Z"
          fill="#C9A85E"/>
    <ellipse cx="53.2" cy="10.1" rx="4.2" ry="1.35" fill="#C9A85E"/>
    <ellipse cx="53.2" cy="10.1" rx="1.9" ry="0.67" fill="#FFFFFF" opacity=".22"/>
    <path d="M50.4 15.5 L56.1 15.5 L56.1 19.3 L50.4 19.3 Z"
          fill="#EFE7D0"/>
    <g stroke="#8A7A56" stroke-width=".26" opacity=".8">
      <path d="M51.3 16.5 L55.2 16.5"/>
      <path d="M51.3 17.6 L54.2 17.6"/>
    </g>
  </g><g>
    <path d="M60 22 L68.5 22 L68.5 9.5 L60 9.5 Z" fill="#8A6A2E"/>
    <path d="M60 9.5 L62.9 9.5 L62.9 22 L60 22 Z"
          fill="#FFFFFF" opacity=".16"/>
    <path d="M67.0 9.5 L68.5 9.5 L68.5 22 L67.0 22 Z"
          fill="#000000" opacity=".18"/>
    <ellipse cx="64.2" cy="9.5" rx="4.2" ry="1.45" fill="#C9A85E"/>
    <path d="M59.5 8.1 L69.0 8.1 L69.0 9.9 L59.5 9.9 Z"
          fill="#C9A85E"/>
    <ellipse cx="64.2" cy="8.1" rx="4.8" ry="1.53" fill="#C9A85E"/>
    <ellipse cx="64.2" cy="8.1" rx="2.1" ry="0.77" fill="#FFFFFF" opacity=".22"/>
    <path d="M60.9 14.2 L67.6 14.2 L67.6 18.8 L60.9 18.8 Z"
          fill="#EFE7D0"/>
    <g stroke="#8A7A56" stroke-width=".26" opacity=".8">
      <path d="M61.8 15.5 L66.7 15.5"/>
      <path d="M61.8 16.8 L65.7 16.8"/>
    </g>
  </g><g>
    <path d="M114 22 L122.5 22 L122.5 10 L114 10 Z" fill="#2E5E6B"/>
    <path d="M114 10 L116.9 10 L116.9 22 L114 22 Z"
          fill="#FFFFFF" opacity=".16"/>
    <path d="M121.0 10 L122.5 10 L122.5 22 L121.0 22 Z"
          fill="#000000" opacity=".18"/>
    <ellipse cx="118.2" cy="10" rx="4.2" ry="1.45" fill="#C9A85E"/>
    <path d="M113.5 8.6 L123.0 8.6 L123.0 10.4 L113.5 10.4 Z"
          fill="#C9A85E"/>
    <ellipse cx="118.2" cy="8.6" rx="4.8" ry="1.53" fill="#C9A85E"/>
    <ellipse cx="118.2" cy="8.6" rx="2.1" ry="0.77" fill="#FFFFFF" opacity=".22"/>
    <path d="M114.9 14.6 L121.6 14.6 L121.6 18.9 L114.9 18.9 Z"
          fill="#EFE7D0"/>
    <g stroke="#8A7A56" stroke-width=".26" opacity=".8">
      <path d="M115.8 15.8 L120.7 15.8"/>
      <path d="M115.8 17.0 L119.7 17.0"/>
    </g>
  </g><g>
    <path d="M125.5 22 L134.5 22 L134.5 8 L125.5 8 Z" fill="#8E3A34"/>
    <path d="M125.5 8 L128.6 8 L128.6 22 L125.5 22 Z"
          fill="#FFFFFF" opacity=".16"/>
    <path d="M132.9 8 L134.5 8 L134.5 22 L132.9 22 Z"
          fill="#000000" opacity=".18"/>
    <ellipse cx="130.0" cy="8" rx="4.5" ry="1.53" fill="#C9A85E"/>
    <path d="M125.0 6.6 L135.0 6.6 L135.0 8.4 L125.0 8.4 Z"
          fill="#C9A85E"/>
    <ellipse cx="130.0" cy="6.6" rx="5.0" ry="1.62" fill="#C9A85E"/>
    <ellipse cx="130.0" cy="6.6" rx="2.2" ry="0.81" fill="#FFFFFF" opacity=".22"/>
    <path d="M126.4 13.3 L133.6 13.3 L133.6 18.4 L126.4 18.4 Z"
          fill="#EFE7D0"/>
    <g stroke="#8A7A56" stroke-width=".26" opacity=".8">
      <path d="M127.3 14.7 L132.7 14.7"/>
      <path d="M127.3 16.1 L131.7 16.1"/>
    </g>
  </g><g>
    <path d="M137.5 22 L145.5 22 L145.5 11 L137.5 11 Z" fill="#3E6B3A"/>
    <path d="M137.5 11 L140.2 11 L140.2 22 L137.5 22 Z"
          fill="#FFFFFF" opacity=".16"/>
    <path d="M144.1 11 L145.5 11 L145.5 22 L144.1 22 Z"
          fill="#000000" opacity=".18"/>
    <ellipse cx="141.5" cy="11" rx="4.0" ry="1.36" fill="#C9A85E"/>
    <path d="M137.0 9.6 L146.0 9.6 L146.0 11.4 L137.0 11.4 Z"
          fill="#C9A85E"/>
    <ellipse cx="141.5" cy="9.6" rx="4.5" ry="1.44" fill="#C9A85E"/>
    <ellipse cx="141.5" cy="9.6" rx="2.0" ry="0.72" fill="#FFFFFF" opacity=".22"/>
    <path d="M138.4 15.2 L144.6 15.2 L144.6 19.1 L138.4 19.1 Z"
          fill="#EFE7D0"/>
    <g stroke="#8A7A56" stroke-width=".26" opacity=".8">
      <path d="M139.3 16.3 L143.7 16.3"/>
      <path d="M139.3 17.4 L142.7 17.4"/>
    </g>
  </g>

  <!-- Two glass jars, so you can see what is in them. -->
  <g>
    <path d="M72 22 L88 22 L88 12.4 C88 11.4 87.2 10.6 86.2 10.6 L73.8 10.6
             C72.8 10.6 72 11.4 72 12.4 Z" fill="url(#glassjar)"/>
    <path d="M72 22 L88 22 L88 16.4 L72 16.4 Z" fill="#5E8A4A" opacity=".35"/>
    <g transform="translate(76.4 19) rotate(-18) scale(0.8)"><path d="M0 0 C2.4 -1.1 5.2 -1.4 7.4 -.5 C5.6 1.4 2.6 2.1 0 0 Z" fill="#4E8A42"/><path d="M.4 .1 C2.6 -.4 4.8 -.6 6.8 -.4" stroke="#26512A" stroke-width=".22" fill="none" opacity=".7"/></g><g transform="translate(79.6 20.2) rotate(22) scale(0.7)"><path d="M0 0 C2.4 -1.1 5.2 -1.4 7.4 -.5 C5.6 1.4 2.6 2.1 0 0 Z" fill="#4E8A42"/><path d="M.4 .1 C2.6 -.4 4.8 -.6 6.8 -.4" stroke="#26512A" stroke-width=".22" fill="none" opacity=".7"/></g><g transform="translate(82.4 18.6) rotate(-6) scale(0.75)"><path d="M0 0 C2.4 -1.1 5.2 -1.4 7.4 -.5 C5.6 1.4 2.6 2.1 0 0 Z" fill="#4E8A42"/><path d="M.4 .1 C2.6 -.4 4.8 -.6 6.8 -.4" stroke="#26512A" stroke-width=".22" fill="none" opacity=".7"/></g><g transform="translate(77.6 21.2) rotate(34) scale(0.65)"><path d="M0 0 C2.4 -1.1 5.2 -1.4 7.4 -.5 C5.6 1.4 2.6 2.1 0 0 Z" fill="#4E8A42"/><path d="M.4 .1 C2.6 -.4 4.8 -.6 6.8 -.4" stroke="#26512A" stroke-width=".22" fill="none" opacity=".7"/></g><g transform="translate(81.4 21.4) rotate(-28) scale(0.7)"><path d="M0 0 C2.4 -1.1 5.2 -1.4 7.4 -.5 C5.6 1.4 2.6 2.1 0 0 Z" fill="#4E8A42"/><path d="M.4 .1 C2.6 -.4 4.8 -.6 6.8 -.4" stroke="#26512A" stroke-width=".22" fill="none" opacity=".7"/></g>
    <path d="M72.6 12 L74.6 12 L74.6 21.6 L72.6 21.6 Z" fill="#FFFFFF" opacity=".22"/>
    <path d="M71.4 10.6 L88.6 10.6 L88.6 9 C88.6 8.4 88 8 87.4 8 L72.6 8
             C72 8 71.4 8.4 71.4 9 Z" fill="#8A6034"/>
    <path d="M71.4 9.4 L88.6 9.4 L88.6 10 L71.4 10 Z" fill="#A87C48"/>
    <g fill="none" stroke="#4A3018" stroke-width=".28" opacity=".5">
      <path d="M72 14.4 L88 14.4"/><path d="M72 18.6 L88 18.6"/>
    </g>
  </g>
  <g>
    <path d="M94 22 L106 22 L106 14 C106 13.2 105.4 12.6 104.6 12.6 L95.4 12.6
             C94.6 12.6 94 13.2 94 14 Z" fill="url(#glassjar)"/>
    <path d="M94 22 L106 22 L106 17.6 L94 17.6 Z" fill="#8A5A2E" opacity=".4"/>
    <path d="M94.6 13.8 L96 13.8 L96 21.6 L94.6 21.6 Z" fill="#FFFFFF" opacity=".22"/>
    <path d="M93.4 12.6 L106.6 12.6 L106.6 11 C106.6 10.4 106 10 105.4 10 L94.6 10
             C94 10 93.4 10.4 93.4 11 Z" fill="#8A6034"/>
    <path d="M93.4 11.4 L106.6 11.4 L106.6 12 L93.4 12 Z" fill="#A87C48"/>
  </g>

  <!-- The shelf itself. -->
  <path d="M0 22 L160 22 L160 24.6 L0 24.6 Z" fill="url(#board)"/>
  <path d="M0 22 L160 22 L160 22.7 L0 22.7 Z" fill="#B58A5E"/>
  <path d="M0 24.6 L160 24.6 L160 25.8 L0 25.8 Z" fill="#1E1409" opacity=".55"/>

  <!-- Below it: a cup poured, a scoop, and the leaf that missed. -->
  <g transform="translate(26 0)">
    <ellipse cx="0" cy="36.4" rx="8.4" ry="2" fill="#E8E2D4"/>
    <ellipse cx="0" cy="36.2" rx="6.4" ry="1.5" fill="#D8D0BE"/>
    <path d="M-5.6 29.4 L5.6 29.4 L4.6 35.4 C4.6 36.2 -4.6 36.2 -4.6 35.4 Z" fill="#F2EDE2"/>
    <path d="M-5.6 29.4 L-1.6 29.4 L-2.6 35.8 C-3.6 35.8 -4.4 36 -4.6 35.4 Z"
          fill="#FFFFFF" opacity=".55"/>
    <ellipse cx="0" cy="29.4" rx="5.6" ry="1.6" fill="#E8E2D4"/>
    <ellipse cx="0" cy="29.5" rx="4.6" ry="1.2" fill="#B4762E"/>
    <ellipse cx="-1.4" cy="29.2" rx="1.7" ry=".55" fill="#E8A75A" opacity=".55"/>
    <path d="M5.2 30.6 C8.2 30.6 9.4 31.8 9.4 33.2 C9.4 34.4 8.2 35.4 5.6 35.4"
          fill="none" stroke="#E8E2D4" stroke-width="1.5"/>
  </g>
  <g fill="#E8E2D4">
    <ellipse class="curl" cx="25" cy="27" rx="1.2" ry="1" opacity=".32"/>
    <ellipse class="curl c2" cx="27.4" cy="27" rx="1" ry=".8" opacity=".28"/>
    <ellipse class="curl c3" cx="23.8" cy="27" rx=".9" ry=".75" opacity=".24"/>
  </g>
  <!-- A wooden scoop, tipped, with the leaf running out of it. -->
  <g transform="translate(58 0)">
    <path d="M-5 33.6 C-5 30.4 5 30.4 5 33.6 C5 36 -5 36 -5 33.6 Z" fill="#B58A5E"/>
    <path d="M-4.4 32.8 C-2.6 31.6 2.6 31.6 4.4 32.8 C2.6 33.8 -2.6 33.8 -4.4 32.8 Z"
          fill="#4A3018"/>
    <path d="M-5 33.6 C-5 31.8 -3 31 0 31 L0 32.4 C-2 32.4 -3.4 32.8 -3.6 33.8 Z"
          fill="#D8AE7E"/>
    <path d="M4.6 32.4 L11.6 30.4 C12.4 30.2 12.8 30.6 12.8 31.2 C12.8 31.8 12.4 32.2 11.6 32.4
             L5 34 Z" fill="#8A6034"/>
  </g>
  <g><g transform="translate(58 34.6) rotate(-16) scale(0.85)"><path d="M0 0 C2.4 -1.1 5.2 -1.4 7.4 -.5 C5.6 1.4 2.6 2.1 0 0 Z" fill="#3E7A38"/><path d="M.4 .1 C2.6 -.4 4.8 -.6 6.8 -.4" stroke="#26512A" stroke-width=".22" fill="none" opacity=".7"/></g><g transform="translate(63.4 35.4) rotate(24) scale(0.75)"><path d="M0 0 C2.4 -1.1 5.2 -1.4 7.4 -.5 C5.6 1.4 2.6 2.1 0 0 Z" fill="#3E7A38"/><path d="M.4 .1 C2.6 -.4 4.8 -.6 6.8 -.4" stroke="#26512A" stroke-width=".22" fill="none" opacity=".7"/></g><g transform="translate(69 34.2) rotate(-34) scale(0.8)"><path d="M0 0 C2.4 -1.1 5.2 -1.4 7.4 -.5 C5.6 1.4 2.6 2.1 0 0 Z" fill="#3E7A38"/><path d="M.4 .1 C2.6 -.4 4.8 -.6 6.8 -.4" stroke="#26512A" stroke-width=".22" fill="none" opacity=".7"/></g><g transform="translate(74.6 35.6) rotate(10) scale(0.7)"><path d="M0 0 C2.4 -1.1 5.2 -1.4 7.4 -.5 C5.6 1.4 2.6 2.1 0 0 Z" fill="#3E7A38"/><path d="M.4 .1 C2.6 -.4 4.8 -.6 6.8 -.4" stroke="#26512A" stroke-width=".22" fill="none" opacity=".7"/></g><g transform="translate(80 34.8) rotate(-12) scale(0.8)"><path d="M0 0 C2.4 -1.1 5.2 -1.4 7.4 -.5 C5.6 1.4 2.6 2.1 0 0 Z" fill="#3E7A38"/><path d="M.4 .1 C2.6 -.4 4.8 -.6 6.8 -.4" stroke="#26512A" stroke-width=".22" fill="none" opacity=".7"/></g><g transform="translate(86 35.4) rotate(28) scale(0.72)"><path d="M0 0 C2.4 -1.1 5.2 -1.4 7.4 -.5 C5.6 1.4 2.6 2.1 0 0 Z" fill="#3E7A38"/><path d="M.4 .1 C2.6 -.4 4.8 -.6 6.8 -.4" stroke="#26512A" stroke-width=".22" fill="none" opacity=".7"/></g></g>
</svg>
