<svg xmlns="http://www.w3.org/2000/svg" xml:space="preserve" style="fill-rule:evenodd;clip-rule:evenodd;stroke-linecap:round;stroke-linejoin:round;stroke-miterlimit:1.5;opacity:0.2;fill:none;stroke:#000;stroke-width:2px" viewBox="0 0 1945 1078"><path d="M135.481 108.338h138.388v130.699H135.481z" transform="matrix(.52028 0 0 .55088 -69.988 -59.182)"/><path d="M135.481 108.338h138.388v130.699H135.481z" transform="matrix(.52028 0 0 .55088 2.012 -59.182)"/><path d="M135.481 108.338h138.388v130.699H135.481z" transform="matrix(.52028 0 0 .55088 74.012 -59.182)"/><path d="M135.481 108.338h138.388v130.699H135.481z" transform="matrix(.52028 0 0 .55088 146.012 -59.182)"/><path d="M135.481 108.338h138.388v130.699H135.481z" transform="matrix(.52028 0 0 .55088 218.012 -59.182)"/><path d="M135.481 108.338h138.388v130.699H135.481z" transform="matrix(.52028 0 0 .55088 290.012 -59.182)"/><path d="M135.481 108.338h138.388v130.699H135.481z" transform="matrix(.52028 0 0 .55088 362.012 -59.182)"/><path d="M135.481 108.338h138.388v130.699H135.481z" transform="matrix(.52028 0 0 .55088 434.012 -59.182)"/><path d="M135.481 108.338h138.388v130.699H135.481z" transform="matrix(.52028 0 0 .55088 506.012 -59.182)"/><path d="M135.481 108.338h138.388v130.699H135.481z" transform="matrix(.52028 0 0 .55088 578.012 -59.182)"/><path d="M135.481 108.338h138.388v130.699H135.481z" transform="matrix(.52028 0 0 .55088 650.012 -59.182)"/><path d="M135.481 108.338h138.388v130.699H135.481z" transform="matrix(.52028 0 0 .55088 722.012 -59.182)"/><path d="M135.481 108.338h138.388v130.699H135.481z" transform="matrix(.52028 0 0 .55088 794.012 -59.182)"/><path d="M135.481 108.338h138.388v130.699H135.481z" transform="matrix(.52028 0 0 .55088 866.012 -59.182)"/><path d="M135.481 108.338h138.388v130.699H135.481z" transform="matrix(.52028 0 0 .55088 938.012 -59.182)"/><path d="M135.481 108.338h138.388v130.699H135.481z" transform="matrix(.52028 0 0 .55088 1010.012 -59.182)"/><path d="M135.481 108.338h138.388v130.699H135.481z" transform="matrix(.52028 0 0 .55088 1082.012 -59.182)"/><path d="M135.481 108.338h138.388v130.699H135.481z" transform="matrix(.52028 0 0 .55088 1154.012 -59.182)"/><path d="M135.481 108.338h138.388v130.699H135.481z" transform="matrix(.52028 0 0 .55088 1226.012 -59.182)"/><path d="M135.481 108.338h138.388v130.699H135.481z" transform="matrix(.52028 0 0 .55088 1298.012 -59.182)"/><path d="M135.481 108.338h138.388v130.699H135.481z" transform="matrix(.52028 0 0 .55088 1370.012 -59.182)"/><path d="M135.481 108.338h138.388v130.699H135.481z" transform="matrix(.52028 0 0 .55088 1442.012 -59.182)"/><path d="M135.481 108.338h138.388v130.699H135.481z" transform="matrix(.52028 0 0 .55088 1514.012 -59.182)"/><path d="M135.481 108.338h138.388v130.699H135.481z" transform="matrix(.52028 0 0 .55088 1586.012 -59.182)"/><path d="M135.481 108.338h138.388v130.699H135.481z" transform="matrix(.52028 0 0 .55088 1658.012 -59.182)"/><path d="M135.481 108.338h138.388v130.699H135.481z" transform="matrix(.52028 0 0 .55088 1730.012 -59.182)"/><path d="M135.481 108.338h138.388v130.699H135.481z" transform="matrix(.52028 0 0 .55088 1802.012 -59.182)"/><path d="M135.481 108.338h138.388v130.699H135.481z" transform="matrix(.52028 0 0 .55088 -69.988 12.575)"/><path d="M135.481 108.338h138.388v130.699H135.481z" transform="matrix(.52028 0 0 .55088 2.012 12.575)"/><path d="M135.481 108.338h138.388v130.699H135.481z" transform="matrix(.52028 0 0 .55088 74.012 12.575)"/><path d="M135.481 108.338h138.388v130.699H135.481z" transform="matrix(.52028 0 0 .55088 146.012 12.575)"/><path d="M135.481 108.338h138.388v130.699H135.481z" transform="matrix(.52028 0 0 .55088 218.012 12.575)"/><path d="M135.481 108.338h138.388v130.699H135.481z" transform="matrix(.52028 0 0 .55088 290.012 12.575)"/><path d="M135.481 108.338h138.388v130.699H135.481z" transform="matrix(.52028 0 0 .55088 362.012 12.575)"/><path d="M135.481 108.338h138.388v130.699H135.481z" transform="matrix(.52028 0 0 .55088 434.012 12.575)"/><path d="M135.481 108.338h138.388v130.699H135.481z" transform="matrix(.52028 0 0 .55088 506.012 12.575)"/><path d="M135.481 108.338h138.388v130.699H135.481z" transform="matrix(.52028 0 0 .55088 578.012 12.575)"/><path d="M135.481 108.338h138.388v130.699H135.481z" transform="matrix(.52028 0 0 .55088 650.012 12.575)"/><path d="M135.481 108.338h138.388v130.699H135.481z" transform="matrix(.52028 0 0 .55088 722.012 12.575)"/><path d="M135.481 108.338h138.388v130.699H135.481z" transform="matrix(.52028 0 0 .55088 794.012 12.575)"/><path d="M135.481 108.338h138.388v130.699H135.481z" transform="matrix(.52028 0 0 .55088 866.012 12.575)"/><path d="M135.481 108.338h138.388v130.699H135.481z" transform="matrix(.52028 0 0 .55088 938.012 12.575)"/><path d="M135.481 108.338h138.388v130.699H135.481z" transform="matrix(.52028 0 0 .55088 1010.012 12.575)"/><path d="M135.481 108.338h138.388v130.699H135.481z" transform="matrix(.52028 0 0 .55088 1082.012 12.575)"/><path d="M135.481 108.338h138.388v130.699H135.481z" transform="matrix(.52028 0 0 .55088 1154.012 12.575)"/><path d="M135.481 108.338h138.388v130.699H135.481z" transform="matrix(.52028 0 0 .55088 1226.012 12.575)"/><path d="M135.481 108.338h138.388v130.699H135.481z" transform="matrix(.52028 0 0 .55088 1298.012 12.575)"/><path d="M135.481 108.338h138.388v130.699H135.481z" transform="matrix(.52028 0 0 .55088 1370.012 12.575)"/><path d="M135.481 108.338h138.388v130.699H135.481z" transform="matrix(.52028 0 0 .55088 1442.012 12.575)"/><path d="M135.481 108.338h138.388v130.699H135.481z" transform="matrix(.52028 0 0 .55088 1514.012 12.575)"/><path d="M135.481 108.338h138.388v130.699H135.481z" transform="matrix(.52028 0 0 .55088 1586.012 12.575)"/><path d="M135.481 108.338h138.388v130.699H135.481z" transform="matrix(.52028 0 0 .55088 1658.012 12.575)"/><path d="M135.481 108.338h138.388v130.699H135.481z" transform="matrix(.52028 0 0 .55088 1730.012 12.575)"/><path d="M135.481 108.338h138.388v130.699H135.481z" transform="matrix(.52028 0 0 .55088 1802.012 12.575)"/><path d="M135.481 108.338h138.388v130.699H135.481z" transform="matrix(.52028 0 0 .55088 -69.988 84.331)"/><path d="M135.481 108.338h138.388v130.699H135.481z" transform="matrix(.52028 0 0 .55088 2.012 84.331)"/><path d="M135.481 108.338h138.388v130.699H135.481z" transform="matrix(.52028 0 0 .55088 74.012 84.331)"/><path d="M135.481 108.338h138.388v130.699H135.481z" transform="matrix(.52028 0 0 .55088 146.012 84.331)"/><path d="M135.481 108.338h138.388v130.699H135.481z" transform="matrix(.52028 0 0 .55088 218.012 84.331)"/><path d="M135.481 108.338h138.388v130.699H135.481z" transform="matrix(.52028 0 0 .55088 290.012 84.331)"/><path d="M135.481 108.338h138.388v130.699H135.481z" transform="matrix(.52028 0 0 .55088 362.012 84.331)"/><path d="M135.481 108.338h138.388v130.699H135.481z" transform="matrix(.52028 0 0 .55088 434.012 84.331)"/><path d="M135.481 108.338h138.388v130.699H135.481z" transform="matrix(.52028 0 0 .55088 506.012 84.331)"/><path d="M135.481 108.338h138.388v130.699H135.481z" transform="matrix(.52028 0 0 .55088 578.012 84.331)"/><path d="M135.481 108.338h138.388v130.699H135.481z" transform="matrix(.52028 0 0 .55088 650.012 84.331)"/><path d="M135.481 108.338h138.388v130.699H135.481z" transform="matrix(.52028 0 0 .55088 722.012 84.331)"/><path d="M135.481 108.338h138.388v130.699H135.481z" transform="matrix(.52028 0 0 .55088 794.012 84.331)"/><path d="M135.481 108.338h138.388v130.699H135.481z" transform="matrix(.52028 0 0 .55088 866.012 84.331)"/><path d="M135.481 108.338h138.388v130.699H135.481z" transform="matrix(.52028 0 0 .55088 938.012 84.331)"/><path d="M135.481 108.338h138.388v130.699H135.481z" transform="matrix(.52028 0 0 .55088 1010.012 84.331)"/><path d="M135.481 108.338h138.388v130.699H135.481z" transform="matrix(.52028 0 0 .55088 1082.012 84.331)"/><path d="M135.481 108.338h138.388v130.699H135.481z" transform="matrix(.52028 0 0 .55088 1154.012 84.331)"/><path d="M135.481 108.338h138.388v130.699H135.481z" transform="matrix(.52028 0 0 .55088 1226.012 84.331)"/><path d="M135.481 108.338h138.388v130.699H135.481z" transform="matrix(.52028 0 0 .55088 1298.012 84.331)"/><path d="M135.481 108.338h138.388v130.699H135.481z" transform="matrix(.52028 0 0 .55088 1370.012 84.331)"/><path d="M135.481 108.338h138.388v130.699H135.481z" transform="matrix(.52028 0 0 .55088 1442.012 84.331)"/><path d="M135.481 108.338h138.388v130.699H135.481z" transform="matrix(.52028 0 0 .55088 1514.012 84.331)"/><path d="M135.481 108.338h138.388v130.699H135.481z" transform="matrix(.52028 0 0 .55088 1586.012 84.331)"/><path d="M135.481 108.338h138.388v130.699H135.481z" transform="matrix(.52028 0 0 .55088 1658.012 84.331)"/><path d="M135.481 108.338h138.388v130.699H135.481z" transform="matrix(.52028 0 0 .55088 1730.012 84.331)"/><path d="M135.481 108.338h138.388v130.699H135.481z" transform="matrix(.52028 0 0 .55088 1802.012 84.331)"/><path d="M135.481 108.338h138.388v130.699H135.481z" transform="matrix(.52028 0 0 .55088 -69.988 156.088)"/><path d="M135.481 108.338h138.388v130.699H135.481z" transform="matrix(.52028 0 0 .55088 2.012 156.088)"/><path d="M135.481 108.338h138.388v130.699H135.481z" transform="matrix(.52028 0 0 .55088 74.012 156.088)"/><path d="M135.481 108.338h138.388v130.699H135.481z" transform="matrix(.52028 0 0 .55088 146.012 156.088)"/><path d="M135.481 108.338h138.388v130.699H135.481z" transform="matrix(.52028 0 0 .55088 218.012 156.088)"/><path d="M135.481 108.338h138.388v130.699H135.481z" transform="matrix(.52028 0 0 .55088 290.012 156.088)"/><path d="M135.481 108.338h138.388v130.699H135.481z" transform="matrix(.52028 0 0 .55088 362.012 156.088)"/><path d="M135.481 108.338h138.388v130.699H135.481z" transform="matrix(.52028 0 0 .55088 434.012 156.088)"/><path d="M135.481 108.338h138.388v130.699H135.481z" transform="matrix(.52028 0 0 .55088 506.012 156.088)"/><path d="M135.481 108.338h138.388v130.699H135.481z" transform="matrix(.52028 0 0 .55088 578.012 156.088)"/><path d="M135.481 108.338h138.388v130.699H135.481z" transform="matrix(.52028 0 0 .55088 650.012 156.088)"/><path d="M135.481 108.338h138.388v130.699H135.481z" transform="matrix(.52028 0 0 .55088 722.012 156.088)"/><path d="M135.481 108.338h138.388v130.699H135.481z" transform="matrix(.52028 0 0 .55088 794.012 156.088)"/><path d="M135.481 108.338h138.388v130.699H135.481z" transform="matrix(.52028 0 0 .55088 866.012 156.088)"/><path d="M135.481 108.338h138.388v130.699H135.481z" transform="matrix(.52028 0 0 .55088 938.012 156.088)"/><path d="M135.481 108.338h138.388v130.699H135.481z" transform="matrix(.52028 0 0 .55088 1010.012 156.088)"/><path d="M135.481 108.338h138.388v130.699H135.481z" transform="matrix(.52028 0 0 .55088 1082.012 156.088)"/><path d="M135.481 108.338h138.388v130.699H135.481z" transform="matrix(.52028 0 0 .55088 1154.012 156.088)"/><path d="M135.481 108.338h138.388v130.699H135.481z" transform="matrix(.52028 0 0 .55088 1226.012 156.088)"/><path d="M135.481 108.338h138.388v130.699H135.481z" transform="matrix(.52028 0 0 .55088 1298.012 156.088)"/><path d="M135.481 108.338h138.388v130.699H135.481z" transform="matrix(.52028 0 0 .55088 1370.012 156.088)"/><path d="M135.481 108.338h138.388v130.699H135.481z" transform="matrix(.52028 0 0 .55088 1442.012 156.088)"/><path d="M135.481 108.338h138.388v130.699H135.481z" transform="matrix(.52028 0 0 .55088 1514.012 156.088)"/><path d="M135.481 108.338h138.388v130.699H135.481z" transform="matrix(.52028 0 0 .55088 1586.012 156.088)"/><path d="M135.481 108.338h138.388v130.699H135.481z" transform="matrix(.52028 0 0 .55088 1658.012 156.088)"/><path d="M135.481 108.338h138.388v130.699H135.481z" transform="matrix(.52028 0 0 .55088 1730.012 156.088)"/><path d="M135.481 108.338h138.388v130.699H135.481z" transform="matrix(.52028 0 0 .55088 1802.012 156.088)"/><path d="M135.481 108.338h138.388v130.699H135.481z" transform="matrix(.52028 0 0 .55088 -69.988 227.844)"/><path d="M135.481 108.338h138.388v130.699H135.481z" transform="matrix(.52028 0 0 .55088 2.012 227.844)"/><path d="M135.481 108.338h138.388v130.699H135.481z" transform="matrix(.52028 0 0 .55088 74.012 227.844)"/><path d="M135.481 108.338h138.388v130.699H135.481z" transform="matrix(.52028 0 0 .55088 146.012 227.844)"/><path d="M135.481 108.338h138.388v130.699H135.481z" transform="matrix(.52028 0 0 .55088 218.012 227.844)"/><path d="M135.481 108.338h138.388v130.699H135.481z" transform="matrix(.52028 0 0 .55088 290.012 227.844)"/><path d="M135.481 108.338h138.388v130.699H135.481z" transform="matrix(.52028 0 0 .55088 362.012 227.844)"/><path d="M135.481 108.338h138.388v130.699H135.481z" transform="matrix(.52028 0 0 .55088 434.012 227.844)"/><path d="M135.481 108.338h138.388v130.699H135.481z" transform="matrix(.52028 0 0 .55088 506.012 227.844)"/><path d="M135.481 108.338h138.388v130.699H135.481z" transform="matrix(.52028 0 0 .55088 578.012 227.844)"/><path d="M135.481 108.338h138.388v130.699H135.481z" transform="matrix(.52028 0 0 .55088 650.012 227.844)"/><path d="M135.481 108.338h138.388v130.699H135.481z" transform="matrix(.52028 0 0 .55088 722.012 227.844)"/><path d="M135.481 108.338h138.388v130.699H135.481z" transform="matrix(.52028 0 0 .55088 794.012 227.844)"/><path d="M135.481 108.338h138.388v130.699H135.481z" transform="matrix(.52028 0 0 .55088 866.012 227.844)"/><path d="M135.481 108.338h138.388v130.699H135.481z" transform="matrix(.52028 0 0 .55088 938.012 227.844)"/><path d="M135.481 108.338h138.388v130.699H135.481z" transform="matrix(.52028 0 0 .55088 1010.012 227.844)"/><path d="M135.481 108.338h138.388v130.699H135.481z" transform="matrix(.52028 0 0 .55088 1082.012 227.844)"/><path d="M135.481 108.338h138.388v130.699H135.481z" transform="matrix(.52028 0 0 .55088 1154.012 227.844)"/><path d="M135.481 108.338h138.388v130.699H135.481z" transform="matrix(.52028 0 0 .55088 1226.012 227.844)"/><path d="M135.481 108.338h138.388v130.699H135.481z" transform="matrix(.52028 0 0 .55088 1298.012 227.844)"/><path d="M135.481 108.338h138.388v130.699H135.481z" transform="matrix(.52028 0 0 .55088 1370.012 227.844)"/><path d="M135.481 108.338h138.388v130.699H135.481z" transform="matrix(.52028 0 0 .55088 1442.012 227.844)"/><path d="M135.481 108.338h138.388v130.699H135.481z" transform="matrix(.52028 0 0 .55088 1514.012 227.844)"/><path d="M135.481 108.338h138.388v130.699H135.481z" transform="matrix(.52028 0 0 .55088 1586.012 227.844)"/><path d="M135.481 108.338h138.388v130.699H135.481z" transform="matrix(.52028 0 0 .55088 1658.012 227.844)"/><path d="M135.481 108.338h138.388v130.699H135.481z" transform="matrix(.52028 0 0 .55088 1730.012 227.844)"/><path d="M135.481 108.338h138.388v130.699H135.481z" transform="matrix(.52028 0 0 .55088 1802.012 227.844)"/><path d="M135.481 108.338h138.388v130.699H135.481z" transform="matrix(.52028 0 0 .55088 -69.988 299.601)"/><path d="M135.481 108.338h138.388v130.699H135.481z" transform="matrix(.52028 0 0 .55088 2.012 299.601)"/><path d="M135.481 108.338h138.388v130.699H135.481z" transform="matrix(.52028 0 0 .55088 74.012 299.601)"/><path d="M135.481 108.338h138.388v130.699H135.481z" transform="matrix(.52028 0 0 .55088 146.012 299.601)"/><path d="M135.481 108.338h138.388v130.699H135.481z" transform="matrix(.52028 0 0 .55088 218.012 299.601)"/><path d="M135.481 108.338h138.388v130.699H135.481z" transform="matrix(.52028 0 0 .55088 290.012 299.601)"/><path d="M135.481 108.338h138.388v130.699H135.481z" transform="matrix(.52028 0 0 .55088 362.012 299.601)"/><path d="M135.481 108.338h138.388v130.699H135.481z" transform="matrix(.52028 0 0 .55088 434.012 299.601)"/><path d="M135.481 108.338h138.388v130.699H135.481z" transform="matrix(.52028 0 0 .55088 506.012 299.601)"/><path d="M135.481 108.338h138.388v130.699H135.481z" transform="matrix(.52028 0 0 .55088 578.012 299.601)"/><path d="M135.481 108.338h138.388v130.699H135.481z" transform="matrix(.52028 0 0 .55088 650.012 299.601)"/><path d="M135.481 108.338h138.388v130.699H135.481z" transform="matrix(.52028 0 0 .55088 722.012 299.601)"/><path d="M135.481 108.338h138.388v130.699H135.481z" transform="matrix(.52028 0 0 .55088 794.012 299.601)"/><path d="M135.481 108.338h138.388v130.699H135.481z" transform="matrix(.52028 0 0 .55088 866.012 299.601)"/><path d="M135.481 108.338h138.388v130.699H135.481z" transform="matrix(.52028 0 0 .55088 938.012 299.601)"/><path d="M135.481 108.338h138.388v130.699H135.481z" transform="matrix(.52028 0 0 .55088 1010.012 299.601)"/><path d="M135.481 108.338h138.388v130.699H135.481z" transform="matrix(.52028 0 0 .55088 1082.012 299.601)"/><path d="M135.481 108.338h138.388v130.699H135.481z" transform="matrix(.52028 0 0 .55088 1154.012 299.601)"/><path d="M135.481 108.338h138.388v130.699H135.481z" transform="matrix(.52028 0 0 .55088 1226.012 299.601)"/><path d="M135.481 108.338h138.388v130.699H135.481z" transform="matrix(.52028 0 0 .55088 1298.012 299.601)"/><path d="M135.481 108.338h138.388v130.699H135.481z" transform="matrix(.52028 0 0 .55088 1370.012 299.601)"/><path d="M135.481 108.338h138.388v130.699H135.481z" transform="matrix(.52028 0 0 .55088 1442.012 299.601)"/><path d="M135.481 108.338h138.388v130.699H135.481z" transform="matrix(.52028 0 0 .55088 1514.012 299.601)"/><path d="M135.481 108.338h138.388v130.699H135.481z" transform="matrix(.52028 0 0 .55088 1586.012 299.601)"/><path d="M135.481 108.338h138.388v130.699H135.481z" transform="matrix(.52028 0 0 .55088 1658.012 299.601)"/><path d="M135.481 108.338h138.388v130.699H135.481z" transform="matrix(.52028 0 0 .55088 1730.012 299.601)"/><path d="M135.481 108.338h138.388v130.699H135.481z" transform="matrix(.52028 0 0 .55088 1802.012 299.601)"/><path d="M135.481 108.338h138.388v130.699H135.481z" transform="matrix(.52028 0 0 .55088 -69.988 371.358)"/><path d="M135.481 108.338h138.388v130.699H135.481z" transform="matrix(.52028 0 0 .55088 2.012 371.358)"/><path d="M135.481 108.338h138.388v130.699H135.481z" transform="matrix(.52028 0 0 .55088 74.012 371.358)"/><path d="M135.481 108.338h138.388v130.699H135.481z" transform="matrix(.52028 0 0 .55088 146.012 371.358)"/><path d="M135.481 108.338h138.388v130.699H135.481z" transform="matrix(.52028 0 0 .55088 218.012 371.358)"/><path d="M135.481 108.338h138.388v130.699H135.481z" transform="matrix(.52028 0 0 .55088 290.012 371.358)"/><path d="M135.481 108.338h138.388v130.699H135.481z" transform="matrix(.52028 0 0 .55088 362.012 371.358)"/><path d="M135.481 108.338h138.388v130.699H135.481z" transform="matrix(.52028 0 0 .55088 434.012 371.358)"/><path d="M135.481 108.338h138.388v130.699H135.481z" transform="matrix(.52028 0 0 .55088 506.012 371.358)"/><path d="M135.481 108.338h138.388v130.699H135.481z" transform="matrix(.52028 0 0 .55088 578.012 371.358)"/><path d="M135.481 108.338h138.388v130.699H135.481z" transform="matrix(.52028 0 0 .55088 650.012 371.358)"/><path d="M135.481 108.338h138.388v130.699H135.481z" transform="matrix(.52028 0 0 .55088 722.012 371.358)"/><path d="M135.481 108.338h138.388v130.699H135.481z" transform="matrix(.52028 0 0 .55088 794.012 371.358)"/><path d="M135.481 108.338h138.388v130.699H135.481z" transform="matrix(.52028 0 0 .55088 866.012 371.358)"/><path d="M135.481 108.338h138.388v130.699H135.481z" transform="matrix(.52028 0 0 .55088 938.012 371.358)"/><path d="M135.481 108.338h138.388v130.699H135.481z" transform="matrix(.52028 0 0 .55088 1010.012 371.358)"/><path d="M135.481 108.338h138.388v130.699H135.481z" transform="matrix(.52028 0 0 .55088 1082.012 371.358)"/><path d="M135.481 108.338h138.388v130.699H135.481z" transform="matrix(.52028 0 0 .55088 1154.012 371.358)"/><path d="M135.481 108.338h138.388v130.699H135.481z" transform="matrix(.52028 0 0 .55088 1226.012 371.358)"/><path d="M135.481 108.338h138.388v130.699H135.481z" transform="matrix(.52028 0 0 .55088 1298.012 371.358)"/><path d="M135.481 108.338h138.388v130.699H135.481z" transform="matrix(.52028 0 0 .55088 1370.012 371.358)"/><path d="M135.481 108.338h138.388v130.699H135.481z" transform="matrix(.52028 0 0 .55088 1442.012 371.358)"/><path d="M135.481 108.338h138.388v130.699H135.481z" transform="matrix(.52028 0 0 .55088 1514.012 371.358)"/><path d="M135.481 108.338h138.388v130.699H135.481z" transform="matrix(.52028 0 0 .55088 1586.012 371.358)"/><path d="M135.481 108.338h138.388v130.699H135.481z" transform="matrix(.52028 0 0 .55088 1658.012 371.358)"/><path d="M135.481 108.338h138.388v130.699H135.481z" transform="matrix(.52028 0 0 .55088 1730.012 371.358)"/><path d="M135.481 108.338h138.388v130.699H135.481z" transform="matrix(.52028 0 0 .55088 1802.012 371.358)"/><path d="M135.481 108.338h138.388v130.699H135.481z" transform="matrix(.52028 0 0 .55088 -69.988 443.114)"/><path d="M135.481 108.338h138.388v130.699H135.481z" transform="matrix(.52028 0 0 .55088 2.012 443.114)"/><path d="M135.481 108.338h138.388v130.699H135.481z" transform="matrix(.52028 0 0 .55088 74.012 443.114)"/><path d="M135.481 108.338h138.388v130.699H135.481z" transform="matrix(.52028 0 0 .55088 146.012 443.114)"/><path d="M135.481 108.338h138.388v130.699H135.481z" transform="matrix(.52028 0 0 .55088 218.012 443.114)"/><path d="M135.481 108.338h138.388v130.699H135.481z" transform="matrix(.52028 0 0 .55088 290.012 443.114)"/><path d="M135.481 108.338h138.388v130.699H135.481z" transform="matrix(.52028 0 0 .55088 362.012 443.114)"/><path d="M135.481 108.338h138.388v130.699H135.481z" transform="matrix(.52028 0 0 .55088 434.012 443.114)"/><path d="M135.481 108.338h138.388v130.699H135.481z" transform="matrix(.52028 0 0 .55088 506.012 443.114)"/><path d="M135.481 108.338h138.388v130.699H135.481z" transform="matrix(.52028 0 0 .55088 578.012 443.114)"/><path d="M135.481 108.338h138.388v130.699H135.481z" transform="matrix(.52028 0 0 .55088 650.012 443.114)"/><path d="M135.481 108.338h138.388v130.699H135.481z" transform="matrix(.52028 0 0 .55088 722.012 443.114)"/><path d="M135.481 108.338h138.388v130.699H135.481z" transform="matrix(.52028 0 0 .55088 794.012 443.114)"/><path d="M135.481 108.338h138.388v130.699H135.481z" transform="matrix(.52028 0 0 .55088 866.012 443.114)"/><path d="M135.481 108.338h138.388v130.699H135.481z" transform="matrix(.52028 0 0 .55088 938.012 443.114)"/><path d="M135.481 108.338h138.388v130.699H135.481z" transform="matrix(.52028 0 0 .55088 1010.012 443.114)"/><path d="M135.481 108.338h138.388v130.699H135.481z" transform="matrix(.52028 0 0 .55088 1082.012 443.114)"/><path d="M135.481 108.338h138.388v130.699H135.481z" transform="matrix(.52028 0 0 .55088 1154.012 443.114)"/><path d="M135.481 108.338h138.388v130.699H135.481z" transform="matrix(.52028 0 0 .55088 1226.012 443.114)"/><path d="M135.481 108.338h138.388v130.699H135.481z" transform="matrix(.52028 0 0 .55088 1298.012 443.114)"/><path d="M135.481 108.338h138.388v130.699H135.481z" transform="matrix(.52028 0 0 .55088 1370.012 443.114)"/><path d="M135.481 108.338h138.388v130.699H135.481z" transform="matrix(.52028 0 0 .55088 1442.012 443.114)"/><path d="M135.481 108.338h138.388v130.699H135.481z" transform="matrix(.52028 0 0 .55088 1514.012 443.114)"/><path d="M135.481 108.338h138.388v130.699H135.481z" transform="matrix(.52028 0 0 .55088 1586.012 443.114)"/><path d="M135.481 108.338h138.388v130.699H135.481z" transform="matrix(.52028 0 0 .55088 1658.012 443.114)"/><path d="M135.481 108.338h138.388v130.699H135.481z" transform="matrix(.52028 0 0 .55088 1730.012 443.114)"/><path d="M135.481 108.338h138.388v130.699H135.481z" transform="matrix(.52028 0 0 .55088 1802.012 443.114)"/><path d="M135.481 108.338h138.388v130.699H135.481z" transform="matrix(.52028 0 0 .55088 -69.988 514.87)"/><path d="M135.481 108.338h138.388v130.699H135.481z" transform="matrix(.52028 0 0 .55088 2.012 514.87)"/><path d="M135.481 108.338h138.388v130.699H135.481z" transform="matrix(.52028 0 0 .55088 74.012 514.87)"/><path d="M135.481 108.338h138.388v130.699H135.481z" transform="matrix(.52028 0 0 .55088 146.012 514.87)"/><path d="M135.481 108.338h138.388v130.699H135.481z" transform="matrix(.52028 0 0 .55088 218.012 514.87)"/><path d="M135.481 108.338h138.388v130.699H135.481z" transform="matrix(.52028 0 0 .55088 290.012 514.87)"/><path d="M135.481 108.338h138.388v130.699H135.481z" transform="matrix(.52028 0 0 .55088 362.012 514.87)"/><path d="M135.481 108.338h138.388v130.699H135.481z" transform="matrix(.52028 0 0 .55088 434.012 514.87)"/><path d="M135.481 108.338h138.388v130.699H135.481z" transform="matrix(.52028 0 0 .55088 506.012 514.87)"/><path d="M135.481 108.338h138.388v130.699H135.481z" transform="matrix(.52028 0 0 .55088 578.012 514.87)"/><path d="M135.481 108.338h138.388v130.699H135.481z" transform="matrix(.52028 0 0 .55088 650.012 514.87)"/><path d="M135.481 108.338h138.388v130.699H135.481z" transform="matrix(.52028 0 0 .55088 722.012 514.87)"/><path d="M135.481 108.338h138.388v130.699H135.481z" transform="matrix(.52028 0 0 .55088 794.012 514.87)"/><path d="M135.481 108.338h138.388v130.699H135.481z" transform="matrix(.52028 0 0 .55088 866.012 514.87)"/><path d="M135.481 108.338h138.388v130.699H135.481z" transform="matrix(.52028 0 0 .55088 938.012 514.87)"/><path d="M135.481 108.338h138.388v130.699H135.481z" transform="matrix(.52028 0 0 .55088 1010.012 514.87)"/><path d="M135.481 108.338h138.388v130.699H135.481z" transform="matrix(.52028 0 0 .55088 1082.012 514.87)"/><path d="M135.481 108.338h138.388v130.699H135.481z" transform="matrix(.52028 0 0 .55088 1154.012 514.87)"/><path d="M135.481 108.338h138.388v130.699H135.481z" transform="matrix(.52028 0 0 .55088 1226.012 514.87)"/><path d="M135.481 108.338h138.388v130.699H135.481z" transform="matrix(.52028 0 0 .55088 1298.012 514.87)"/><path d="M135.481 108.338h138.388v130.699H135.481z" transform="matrix(.52028 0 0 .55088 1370.012 514.87)"/><path d="M135.481 108.338h138.388v130.699H135.481z" transform="matrix(.52028 0 0 .55088 1442.012 514.87)"/><path d="M135.481 108.338h138.388v130.699H135.481z" transform="matrix(.52028 0 0 .55088 1514.012 514.87)"/><path d="M135.481 108.338h138.388v130.699H135.481z" transform="matrix(.52028 0 0 .55088 1586.012 514.87)"/><path d="M135.481 108.338h138.388v130.699H135.481z" transform="matrix(.52028 0 0 .55088 1658.012 514.87)"/><path d="M135.481 108.338h138.388v130.699H135.481z" transform="matrix(.52028 0 0 .55088 1730.012 514.87)"/><path d="M135.481 108.338h138.388v130.699H135.481z" transform="matrix(.52028 0 0 .55088 1802.012 514.87)"/><path d="M135.481 108.338h138.388v130.699H135.481z" transform="matrix(.52028 0 0 .55088 -69.988 586.627)"/><path d="M135.481 108.338h138.388v130.699H135.481z" transform="matrix(.52028 0 0 .55088 2.012 586.627)"/><path d="M135.481 108.338h138.388v130.699H135.481z" transform="matrix(.52028 0 0 .55088 74.012 586.627)"/><path d="M135.481 108.338h138.388v130.699H135.481z" transform="matrix(.52028 0 0 .55088 146.012 586.627)"/><path d="M135.481 108.338h138.388v130.699H135.481z" transform="matrix(.52028 0 0 .55088 218.012 586.627)"/><path d="M135.481 108.338h138.388v130.699H135.481z" transform="matrix(.52028 0 0 .55088 290.012 586.627)"/><path d="M135.481 108.338h138.388v130.699H135.481z" transform="matrix(.52028 0 0 .55088 362.012 586.627)"/><path d="M135.481 108.338h138.388v130.699H135.481z" transform="matrix(.52028 0 0 .55088 434.012 586.627)"/><path d="M135.481 108.338h138.388v130.699H135.481z" transform="matrix(.52028 0 0 .55088 506.012 586.627)"/><path d="M135.481 108.338h138.388v130.699H135.481z" transform="matrix(.52028 0 0 .55088 578.012 586.627)"/><path d="M135.481 108.338h138.388v130.699H135.481z" transform="matrix(.52028 0 0 .55088 650.012 586.627)"/><path d="M135.481 108.338h138.388v130.699H135.481z" transform="matrix(.52028 0 0 .55088 722.012 586.627)"/><path d="M135.481 108.338h138.388v130.699H135.481z" transform="matrix(.52028 0 0 .55088 794.012 586.627)"/><path d="M135.481 108.338h138.388v130.699H135.481z" transform="matrix(.52028 0 0 .55088 866.012 586.627)"/><path d="M135.481 108.338h138.388v130.699H135.481z" transform="matrix(.52028 0 0 .55088 938.012 586.627)"/><path d="M135.481 108.338h138.388v130.699H135.481z" transform="matrix(.52028 0 0 .55088 1010.012 586.627)"/><path d="M135.481 108.338h138.388v130.699H135.481z" transform="matrix(.52028 0 0 .55088 1082.012 586.627)"/><path d="M135.481 108.338h138.388v130.699H135.481z" transform="matrix(.52028 0 0 .55088 1154.012 586.627)"/><path d="M135.481 108.338h138.388v130.699H135.481z" transform="matrix(.52028 0 0 .55088 1226.012 586.627)"/><path d="M135.481 108.338h138.388v130.699H135.481z" transform="matrix(.52028 0 0 .55088 1298.012 586.627)"/><path d="M135.481 108.338h138.388v130.699H135.481z" transform="matrix(.52028 0 0 .55088 1370.012 586.627)"/><path d="M135.481 108.338h138.388v130.699H135.481z" transform="matrix(.52028 0 0 .55088 1442.012 586.627)"/><path d="M135.481 108.338h138.388v130.699H135.481z" transform="matrix(.52028 0 0 .55088 1514.012 586.627)"/><path d="M135.481 108.338h138.388v130.699H135.481z" transform="matrix(.52028 0 0 .55088 1586.012 586.627)"/><path d="M135.481 108.338h138.388v130.699H135.481z" transform="matrix(.52028 0 0 .55088 1658.012 586.627)"/><path d="M135.481 108.338h138.388v130.699H135.481z" transform="matrix(.52028 0 0 .55088 1730.012 586.627)"/><path d="M135.481 108.338h138.388v130.699H135.481z" transform="matrix(.52028 0 0 .55088 1802.012 586.627)"/><path d="M135.481 108.338h138.388v130.699H135.481z" transform="matrix(.52028 0 0 .55088 -69.988 658.384)"/><path d="M135.481 108.338h138.388v130.699H135.481z" transform="matrix(.52028 0 0 .55088 2.012 658.384)"/><path d="M135.481 108.338h138.388v130.699H135.481z" transform="matrix(.52028 0 0 .55088 74.012 658.384)"/><path d="M135.481 108.338h138.388v130.699H135.481z" transform="matrix(.52028 0 0 .55088 146.012 658.384)"/><path d="M135.481 108.338h138.388v130.699H135.481z" transform="matrix(.52028 0 0 .55088 218.012 658.384)"/><path d="M135.481 108.338h138.388v130.699H135.481z" transform="matrix(.52028 0 0 .55088 290.012 658.384)"/><path d="M135.481 108.338h138.388v130.699H135.481z" transform="matrix(.52028 0 0 .55088 362.012 658.384)"/><path d="M135.481 108.338h138.388v130.699H135.481z" transform="matrix(.52028 0 0 .55088 434.012 658.384)"/><path d="M135.481 108.338h138.388v130.699H135.481z" transform="matrix(.52028 0 0 .55088 506.012 658.384)"/><path d="M135.481 108.338h138.388v130.699H135.481z" transform="matrix(.52028 0 0 .55088 578.012 658.384)"/><path d="M135.481 108.338h138.388v130.699H135.481z" transform="matrix(.52028 0 0 .55088 650.012 658.384)"/><path d="M135.481 108.338h138.388v130.699H135.481z" transform="matrix(.52028 0 0 .55088 722.012 658.384)"/><path d="M135.481 108.338h138.388v130.699H135.481z" transform="matrix(.52028 0 0 .55088 794.012 658.384)"/><path d="M135.481 108.338h138.388v130.699H135.481z" transform="matrix(.52028 0 0 .55088 866.012 658.384)"/><path d="M135.481 108.338h138.388v130.699H135.481z" transform="matrix(.52028 0 0 .55088 938.012 658.384)"/><path d="M135.481 108.338h138.388v130.699H135.481z" transform="matrix(.52028 0 0 .55088 1010.012 658.384)"/><path d="M135.481 108.338h138.388v130.699H135.481z" transform="matrix(.52028 0 0 .55088 1082.012 658.384)"/><path d="M135.481 108.338h138.388v130.699H135.481z" transform="matrix(.52028 0 0 .55088 1154.012 658.384)"/><path d="M135.481 108.338h138.388v130.699H135.481z" transform="matrix(.52028 0 0 .55088 1226.012 658.384)"/><path d="M135.481 108.338h138.388v130.699H135.481z" transform="matrix(.52028 0 0 .55088 1298.012 658.384)"/><path d="M135.481 108.338h138.388v130.699H135.481z" transform="matrix(.52028 0 0 .55088 1370.012 658.384)"/><path d="M135.481 108.338h138.388v130.699H135.481z" transform="matrix(.52028 0 0 .55088 1442.012 658.384)"/><path d="M135.481 108.338h138.388v130.699H135.481z" transform="matrix(.52028 0 0 .55088 1514.012 658.384)"/><path d="M135.481 108.338h138.388v130.699H135.481z" transform="matrix(.52028 0 0 .55088 1586.012 658.384)"/><path d="M135.481 108.338h138.388v130.699H135.481z" transform="matrix(.52028 0 0 .55088 1658.012 658.384)"/><path d="M135.481 108.338h138.388v130.699H135.481z" transform="matrix(.52028 0 0 .55088 1730.012 658.384)"/><path d="M135.481 108.338h138.388v130.699H135.481z" transform="matrix(.52028 0 0 .55088 1802.012 658.384)"/><path d="M135.481 108.338h138.388v130.699H135.481z" transform="matrix(.52028 0 0 .55088 -69.988 730.14)"/><path d="M135.481 108.338h138.388v130.699H135.481z" transform="matrix(.52028 0 0 .55088 2.012 730.14)"/><path d="M135.481 108.338h138.388v130.699H135.481z" transform="matrix(.52028 0 0 .55088 74.012 730.14)"/><path d="M135.481 108.338h138.388v130.699H135.481z" transform="matrix(.52028 0 0 .55088 146.012 730.14)"/><path d="M135.481 108.338h138.388v130.699H135.481z" transform="matrix(.52028 0 0 .55088 218.012 730.14)"/><path d="M135.481 108.338h138.388v130.699H135.481z" transform="matrix(.52028 0 0 .55088 290.012 730.14)"/><path d="M135.481 108.338h138.388v130.699H135.481z" transform="matrix(.52028 0 0 .55088 362.012 730.14)"/><path d="M135.481 108.338h138.388v130.699H135.481z" transform="matrix(.52028 0 0 .55088 434.012 730.14)"/><path d="M135.481 108.338h138.388v130.699H135.481z" transform="matrix(.52028 0 0 .55088 506.012 730.14)"/><path d="M135.481 108.338h138.388v130.699H135.481z" transform="matrix(.52028 0 0 .55088 578.012 730.14)"/><path d="M135.481 108.338h138.388v130.699H135.481z" transform="matrix(.52028 0 0 .55088 650.012 730.14)"/><path d="M135.481 108.338h138.388v130.699H135.481z" transform="matrix(.52028 0 0 .55088 722.012 730.14)"/><path d="M135.481 108.338h138.388v130.699H135.481z" transform="matrix(.52028 0 0 .55088 794.012 730.14)"/><path d="M135.481 108.338h138.388v130.699H135.481z" transform="matrix(.52028 0 0 .55088 866.012 730.14)"/><path d="M135.481 108.338h138.388v130.699H135.481z" transform="matrix(.52028 0 0 .55088 938.012 730.14)"/><path d="M135.481 108.338h138.388v130.699H135.481z" transform="matrix(.52028 0 0 .55088 1010.012 730.14)"/><path d="M135.481 108.338h138.388v130.699H135.481z" transform="matrix(.52028 0 0 .55088 1082.012 730.14)"/><path d="M135.481 108.338h138.388v130.699H135.481z" transform="matrix(.52028 0 0 .55088 1154.012 730.14)"/><path d="M135.481 108.338h138.388v130.699H135.481z" transform="matrix(.52028 0 0 .55088 1226.012 730.14)"/><path d="M135.481 108.338h138.388v130.699H135.481z" transform="matrix(.52028 0 0 .55088 1298.012 730.14)"/><path d="M135.481 108.338h138.388v130.699H135.481z" transform="matrix(.52028 0 0 .55088 1370.012 730.14)"/><path d="M135.481 108.338h138.388v130.699H135.481z" transform="matrix(.52028 0 0 .55088 1442.012 730.14)"/><path d="M135.481 108.338h138.388v130.699H135.481z" transform="matrix(.52028 0 0 .55088 1514.012 730.14)"/><path d="M135.481 108.338h138.388v130.699H135.481z" transform="matrix(.52028 0 0 .55088 1586.012 730.14)"/><path d="M135.481 108.338h138.388v130.699H135.481z" transform="matrix(.52028 0 0 .55088 1658.012 730.14)"/><path d="M135.481 108.338h138.388v130.699H135.481z" transform="matrix(.52028 0 0 .55088 1730.012 730.14)"/><path d="M135.481 108.338h138.388v130.699H135.481z" transform="matrix(.52028 0 0 .55088 1802.012 730.14)"/><path d="M135.481 108.338h138.388v130.699H135.481z" transform="matrix(.52028 0 0 .55088 -69.988 801.897)"/><path d="M135.481 108.338h138.388v130.699H135.481z" transform="matrix(.52028 0 0 .55088 2.012 801.897)"/><path d="M135.481 108.338h138.388v130.699H135.481z" transform="matrix(.52028 0 0 .55088 74.012 801.897)"/><path d="M135.481 108.338h138.388v130.699H135.481z" transform="matrix(.52028 0 0 .55088 146.012 801.897)"/><path d="M135.481 108.338h138.388v130.699H135.481z" transform="matrix(.52028 0 0 .55088 218.012 801.897)"/><path d="M135.481 108.338h138.388v130.699H135.481z" transform="matrix(.52028 0 0 .55088 290.012 801.897)"/><path d="M135.481 108.338h138.388v130.699H135.481z" transform="matrix(.52028 0 0 .55088 362.012 801.897)"/><path d="M135.481 108.338h138.388v130.699H135.481z" transform="matrix(.52028 0 0 .55088 434.012 801.897)"/><path d="M135.481 108.338h138.388v130.699H135.481z" transform="matrix(.52028 0 0 .55088 506.012 801.897)"/><path d="M135.481 108.338h138.388v130.699H135.481z" transform="matrix(.52028 0 0 .55088 578.012 801.897)"/><path d="M135.481 108.338h138.388v130.699H135.481z" transform="matrix(.52028 0 0 .55088 650.012 801.897)"/><path d="M135.481 108.338h138.388v130.699H135.481z" transform="matrix(.52028 0 0 .55088 722.012 801.897)"/><path d="M135.481 108.338h138.388v130.699H135.481z" transform="matrix(.52028 0 0 .55088 794.012 801.897)"/><path d="M135.481 108.338h138.388v130.699H135.481z" transform="matrix(.52028 0 0 .55088 866.012 801.897)"/><path d="M135.481 108.338h138.388v130.699H135.481z" transform="matrix(.52028 0 0 .55088 938.012 801.897)"/><path d="M135.481 108.338h138.388v130.699H135.481z" transform="matrix(.52028 0 0 .55088 1010.012 801.897)"/><path d="M135.481 108.338h138.388v130.699H135.481z" transform="matrix(.52028 0 0 .55088 1082.012 801.897)"/><path d="M135.481 108.338h138.388v130.699H135.481z" transform="matrix(.52028 0 0 .55088 1154.012 801.897)"/><path d="M135.481 108.338h138.388v130.699H135.481z" transform="matrix(.52028 0 0 .55088 1226.012 801.897)"/><path d="M135.481 108.338h138.388v130.699H135.481z" transform="matrix(.52028 0 0 .55088 1298.012 801.897)"/><path d="M135.481 108.338h138.388v130.699H135.481z" transform="matrix(.52028 0 0 .55088 1370.012 801.897)"/><path d="M135.481 108.338h138.388v130.699H135.481z" transform="matrix(.52028 0 0 .55088 1442.012 801.897)"/><path d="M135.481 108.338h138.388v130.699H135.481z" transform="matrix(.52028 0 0 .55088 1514.012 801.897)"/><path d="M135.481 108.338h138.388v130.699H135.481z" transform="matrix(.52028 0 0 .55088 1586.012 801.897)"/><path d="M135.481 108.338h138.388v130.699H135.481z" transform="matrix(.52028 0 0 .55088 1658.012 801.897)"/><path d="M135.481 108.338h138.388v130.699H135.481z" transform="matrix(.52028 0 0 .55088 1730.012 801.897)"/><path d="M135.481 108.338h138.388v130.699H135.481z" transform="matrix(.52028 0 0 .55088 1802.012 801.897)"/><path d="M135.481 108.338h138.388v130.699H135.481z" transform="matrix(.52028 0 0 .55088 -69.988 873.653)"/><path d="M135.481 108.338h138.388v130.699H135.481z" transform="matrix(.52028 0 0 .55088 2.012 873.653)"/><path d="M135.481 108.338h138.388v130.699H135.481z" transform="matrix(.52028 0 0 .55088 74.012 873.653)"/><path d="M135.481 108.338h138.388v130.699H135.481z" transform="matrix(.52028 0 0 .55088 146.012 873.653)"/><path d="M135.481 108.338h138.388v130.699H135.481z" transform="matrix(.52028 0 0 .55088 218.012 873.653)"/><path d="M135.481 108.338h138.388v130.699H135.481z" transform="matrix(.52028 0 0 .55088 290.012 873.653)"/><path d="M135.481 108.338h138.388v130.699H135.481z" transform="matrix(.52028 0 0 .55088 362.012 873.653)"/><path d="M135.481 108.338h138.388v130.699H135.481z" transform="matrix(.52028 0 0 .55088 434.012 873.653)"/><path d="M135.481 108.338h138.388v130.699H135.481z" transform="matrix(.52028 0 0 .55088 506.012 873.653)"/><path d="M135.481 108.338h138.388v130.699H135.481z" transform="matrix(.52028 0 0 .55088 578.012 873.653)"/><path d="M135.481 108.338h138.388v130.699H135.481z" transform="matrix(.52028 0 0 .55088 650.012 873.653)"/><path d="M135.481 108.338h138.388v130.699H135.481z" transform="matrix(.52028 0 0 .55088 722.012 873.653)"/><path d="M135.481 108.338h138.388v130.699H135.481z" transform="matrix(.52028 0 0 .55088 794.012 873.653)"/><path d="M135.481 108.338h138.388v130.699H135.481z" transform="matrix(.52028 0 0 .55088 866.012 873.653)"/><path d="M135.481 108.338h138.388v130.699H135.481z" transform="matrix(.52028 0 0 .55088 938.012 873.653)"/><path d="M135.481 108.338h138.388v130.699H135.481z" transform="matrix(.52028 0 0 .55088 1010.012 873.653)"/><path d="M135.481 108.338h138.388v130.699H135.481z" transform="matrix(.52028 0 0 .55088 1082.012 873.653)"/><path d="M135.481 108.338h138.388v130.699H135.481z" transform="matrix(.52028 0 0 .55088 1154.012 873.653)"/><path d="M135.481 108.338h138.388v130.699H135.481z" transform="matrix(.52028 0 0 .55088 1226.012 873.653)"/><path d="M135.481 108.338h138.388v130.699H135.481z" transform="matrix(.52028 0 0 .55088 1298.012 873.653)"/><path d="M135.481 108.338h138.388v130.699H135.481z" transform="matrix(.52028 0 0 .55088 1370.012 873.653)"/><path d="M135.481 108.338h138.388v130.699H135.481z" transform="matrix(.52028 0 0 .55088 1442.012 873.653)"/><path d="M135.481 108.338h138.388v130.699H135.481z" transform="matrix(.52028 0 0 .55088 1514.012 873.653)"/><path d="M135.481 108.338h138.388v130.699H135.481z" transform="matrix(.52028 0 0 .55088 1586.012 873.653)"/><path d="M135.481 108.338h138.388v130.699H135.481z" transform="matrix(.52028 0 0 .55088 1658.012 873.653)"/><path d="M135.481 108.338h138.388v130.699H135.481z" transform="matrix(.52028 0 0 .55088 1730.012 873.653)"/><path d="M135.481 108.338h138.388v130.699H135.481z" transform="matrix(.52028 0 0 .55088 1802.012 873.653)"/><path d="M135.481 108.338h138.388v130.699H135.481z" transform="matrix(.52028 0 0 .55088 -69.988 945.41)"/><path d="M135.481 108.338h138.388v130.699H135.481z" transform="matrix(.52028 0 0 .55088 2.012 945.41)"/><path d="M135.481 108.338h138.388v130.699H135.481z" transform="matrix(.52028 0 0 .55088 74.012 945.41)"/><path d="M135.481 108.338h138.388v130.699H135.481z" transform="matrix(.52028 0 0 .55088 146.012 945.41)"/><path d="M135.481 108.338h138.388v130.699H135.481z" transform="matrix(.52028 0 0 .55088 218.012 945.41)"/><path d="M135.481 108.338h138.388v130.699H135.481z" transform="matrix(.52028 0 0 .55088 290.012 945.41)"/><path d="M135.481 108.338h138.388v130.699H135.481z" transform="matrix(.52028 0 0 .55088 362.012 945.41)"/><path d="M135.481 108.338h138.388v130.699H135.481z" transform="matrix(.52028 0 0 .55088 434.012 945.41)"/><path d="M135.481 108.338h138.388v130.699H135.481z" transform="matrix(.52028 0 0 .55088 506.012 945.41)"/><path d="M135.481 108.338h138.388v130.699H135.481z" transform="matrix(.52028 0 0 .55088 578.012 945.41)"/><path d="M135.481 108.338h138.388v130.699H135.481z" transform="matrix(.52028 0 0 .55088 650.012 945.41)"/><path d="M135.481 108.338h138.388v130.699H135.481z" transform="matrix(.52028 0 0 .55088 722.012 945.41)"/><path d="M135.481 108.338h138.388v130.699H135.481z" transform="matrix(.52028 0 0 .55088 794.012 945.41)"/><path d="M135.481 108.338h138.388v130.699H135.481z" transform="matrix(.52028 0 0 .55088 866.012 945.41)"/><path d="M135.481 108.338h138.388v130.699H135.481z" transform="matrix(.52028 0 0 .55088 938.012 945.41)"/><path d="M135.481 108.338h138.388v130.699H135.481z" transform="matrix(.52028 0 0 .55088 1010.012 945.41)"/><path d="M135.481 108.338h138.388v130.699H135.481z" transform="matrix(.52028 0 0 .55088 1082.012 945.41)"/><path d="M135.481 108.338h138.388v130.699H135.481z" transform="matrix(.52028 0 0 .55088 1154.012 945.41)"/><path d="M135.481 108.338h138.388v130.699H135.481z" transform="matrix(.52028 0 0 .55088 1226.012 945.41)"/><path d="M135.481 108.338h138.388v130.699H135.481z" transform="matrix(.52028 0 0 .55088 1298.012 945.41)"/><path d="M135.481 108.338h138.388v130.699H135.481z" transform="matrix(.52028 0 0 .55088 1370.012 945.41)"/><path d="M135.481 108.338h138.388v130.699H135.481z" transform="matrix(.52028 0 0 .55088 1442.012 945.41)"/><path d="M135.481 108.338h138.388v130.699H135.481z" transform="matrix(.52028 0 0 .55088 1514.012 945.41)"/><path d="M135.481 108.338h138.388v130.699H135.481z" transform="matrix(.52028 0 0 .55088 1586.012 945.41)"/><path d="M135.481 108.338h138.388v130.699H135.481z" transform="matrix(.52028 0 0 .55088 1658.012 945.41)"/><path d="M135.481 108.338h138.388v130.699H135.481z" transform="matrix(.52028 0 0 .55088 1730.012 945.41)"/><path d="M135.481 108.338h138.388v130.699H135.481z" transform="matrix(.52028 0 0 .55088 1802.012 945.41)"/></svg>
