<svg xmlns="http://www.w3.org/2000/svg" viewBox="0 0 48 48" width="48" height="48"
     role="presentation">
  <title>Popcorn</title>
  <circle cx="24" cy="24" r="23" fill="#1A1622"/>
  <circle cx="24" cy="24" r="21" fill="none" stroke="#D8443A" stroke-width="2"/>
  <!-- The bucket. -->
  <path d="M14.6 20 L33.4 20 L31 40 L17 40 Z" fill="#E8443A"/>
  <g fill="#F2E8D6">
    <path d="M16.6 20 L18.4 40 L21 40 L19.8 20 Z"/><path d="M23.2 20 L23.2 40 L25.8 40 L25.8 20 Z"/>
    <path d="M29.4 20 L28.2 40 L30.8 40 L32.6 20 Z"/>
  </g>
  <path d="M14 18.6 L34 18.6 L33.6 21 L14.4 21 Z" fill="#B4231F"/>
  <!-- And what is coming out of it. -->
  <g fill="#F6E8C0">
    <circle cx="18" cy="17" r="3.1"/><circle cx="23.4" cy="14.4" r="3.4"/>
    <circle cx="29.6" cy="16.6" r="3"/><circle cx="20.6" cy="12.6" r="2.6"/>
    <circle cx="27" cy="11.6" r="2.7"/><circle cx="32.4" cy="12.8" r="2.2"/>
    <circle cx="15.4" cy="13.6" r="2.1"/><circle cx="24" cy="9" r="2.3"/>
  </g>
  <g fill="#E8D49A">
    <circle cx="19.4" cy="16.2" r="1.1"/><circle cx="24.6" cy="13.4" r="1.2"/>
    <circle cx="30.4" cy="15.8" r="1"/><circle cx="26.6" cy="10.8" r=".9"/>
  </g>
</svg>
